<svg width="512" height="512" viewBox="0 0 512 512" xmlns="http://www.w3.org/2000/svg">
  <!-- NEW Option 5: Maroon Premium -->
  <defs>
    <linearGradient id="maroon1" x1="0%" y1="0%" x2="100%" y2="100%">
      <stop offset="0%" style="stop-color:#C62828;stop-opacity:1" />
      <stop offset="100%" style="stop-color:#B71C1C;stop-opacity:1" />
    </linearGradient>
  </defs>
  
  <rect width="512" height="512" rx="110" fill="url(#maroon1)"/>
  
  <g transform="translate(256, 256)">
    <!-- Elegant book -->
    <rect x="-135" y="-145" width="270" height="290" rx="20" fill="white" opacity="0.98"/>
    
    <!-- Gold trim -->
    <rect x="-135" y="-145" width="15" height="290" fill="#FFD700"/>
    <rect x="-135" y="-145" width="270" height="15" fill="#FFD700"/>
    
    <!-- Maroon ledger lines -->
    <line x1="-100" y1="-90" x2="115" y2="-90" stroke="#C62828" stroke-width="3" opacity="0.3"/>
    <line x1="-100" y1="-40" x2="115" y2="-40" stroke="#C62828" stroke-width="3" opacity="0.3"/>
    <line x1="-100" y1="10" x2="115" y2="10" stroke="#C62828" stroke-width="3" opacity="0.3"/>
    <line x1="-100" y1="60" x2="115" y2="60" stroke="#C62828" stroke-width="3" opacity="0.3"/>
    <line x1="-100" y1="110" x2="115" y2="110" stroke="#C62828" stroke-width="3" opacity="0.3"/>
    
    <!-- Center rupee -->
    <g transform="translate(10, 10)">
      <line x1="-50" y1="-45" x2="50" y2="-45" stroke="#C62828" stroke-width="11" stroke-linecap="round"/>
      <line x1="-50" y1="-18" x2="40" y2="-18" stroke="#C62828" stroke-width="11" stroke-linecap="round"/>
      <line x1="-25" y1="-18" x2="50" y2="55" stroke="#C62828" stroke-width="13" stroke-linecap="round"/>
    </g>
  </g>
  
  <!-- Gold eT badge -->
  <g transform="translate(256, 435)">
    <rect x="-55" y="-26" width="110" height="52" rx="26" fill="#FFD700"/>
    <text x="0" y="5" font-family="Arial, sans-serif" font-size="38" font-weight="bold" fill="#B71C1C" text-anchor="middle" dominant-baseline="central">eT</text>
  </g>
</svg>

